<?xml version="1.0" encoding="utf-8"?>
<svg version="1.2" baseProfile="tiny-ps" viewBox="0 0 300 300" xmlns:xlink="http://www.w3.org/1999/xlink" xmlns="http://www.w3.org/2000/svg">
  <title>FWForestry</title>
  <g>
    <g fill="#FFFFFF" transform="matrix(.1 0 0 -.1 0 300)">
      <path d="M0 1500V0h3000v3000H0V1500z" />
    </g>   
    <g fill="#4b762b" transform="matrix(.1 0 0 -.1 0 300)">
      <path d="M0 1500V0h3000v3000H0V1500zm2575 430v-545l-14-80c-29-171-61-276-130-420l-48-100-58-80c-163-225-355-390-678-581-78-46-147-84-153-84-16 0-287 163-368 222-121 88-223 176-307 266l-80 87-61 90c-114 170-185 341-230 555l-22 105-4 544c-2 299-1 550 2 557l5 14 1073-2 1073-3v-545zm-2065 26v-434l16-124 15-123 29-110c16-60 40-138 53-171 100-253 303-490 587-686 93-64 267-168 281-168 17 0 268 151 338 203 332 246 519 502 606 830 13 50 31 138 40 194l15 103v920H510v-434zm1860-83v-398l-19-115c-11-63-33-161-49-217l-30-102-47-88-46-88-72-96c-93-124-151-184-263-275-99-80-271-194-291-194h-13l-1 270c-1 149-2 276-3 283l-1 12 50-3 49-2 74-25 74-25h107l3 27 3 27 43 29 42 28v29h-22c-13 0-36 7-52 15-16 9-43 17-60 18l-31 3v49l40 18 39 19-29 21c-17 12-47 38-68 59l-39 37 7 11 6 10h32c18 0 59-7 90-15 32-8 64-15 71-15h14l4 63c3 34 8 69 12 78l7 15-36 17c-20 9-72 31-115 48l-80 30v28l21 6c11 4 41 5 66 3l47-3 21 56c12 30 25 67 29 82l6 26-22 21-22 20h-22c-13 0-26-5-29-10l-7-11-36 7c-20 4-66 20-101 35-36 16-82 32-103 35l-38 7v26l30 16c40 21 60 19 132-10 34-14 71-25 82-25h20l23 22c13 12 23 25 23 28 0 10-72 29-154 40-37 5-70 11-73 14-8 8 7 27 38 45l29 18-27 27-28 28-38-5-38-5 3 26 3 27 42 10c23 6 44 13 48 17l7 7-31 15-30 16-28-11-27-10-22 11-21 12-15 30-14 30-32-27c-18-15-41-44-51-64-11-20-31-47-45-60l-25-24-51-5-50-5v-9c0-6 14-26 30-45l30-34v-59h58l12-16 13-15-17-17-17-17-77 2c-42 1-90 3-107 5l-30 3-20-41c-11-23-28-51-37-61l-18-20v-44l35 7 35 6v-8c0-5-5-26-10-46l-11-37-34-12-34-13 6-9 6-10 63 6 64 5v-58h28c15 0 32-4 39-8 11-7 33-54 33-70v-7l-87 1-87 1-33 38-33 38-6-16-6-17 11-32c14-39 72-138 82-138 4 0 12 7 19 15 17 21 31 19 94-12l55-27-11-13c-15-18-104-43-154-43h-43l-5-9-6-9 30-25 29-25 43-7c24-3 67-11 96-16l53-11-10-12c-6-7-35-21-65-31l-54-18-58 21c-33 12-71 24-86 26l-28 5v-7c0-4 10-28 22-53l22-47 65 2 66 1v-48c0-26 3-47 7-47 31 0 122 27 165 48l52 26 7-7c13-12 23-171 23-367l1-195-9-14-9-14-77 47c-42 27-113 75-158 109l-82 60-105 106C911 729 896 746 847 823c-95 148-142 267-188 472l-23 100-4 438-3 437h1741v-397z" />
    </g>
  </g>
</svg>
